HIERARCHY
ROOT Hips
{
	OFFSET 36.650902 -6.097563 81.276199
	CHANNELS 6 Xposition Yposition Zposition Xrotation Yrotation Zrotation
	JOINT spine
	{
		OFFSET 0.000000 -0.359108 6.244789
		CHANNELS 3 Xrotation Yrotation Zrotation
		JOINT spine1
		{
			OFFSET 0.000000 -0.000001 9.069412
			CHANNELS 3 Xrotation Yrotation Zrotation
			JOINT spine2
			{
				OFFSET 0.000000 -0.000001 8.690140
				CHANNELS 3 Xrotation Yrotation Zrotation
				JOINT Neck
				{
					OFFSET 0.000000 -1.063724 22.311195
					CHANNELS 3 Xrotation Yrotation Zrotation
					JOINT Head
					{
						OFFSET 0.000000 -0.000001 6.740814
						CHANNELS 3 Xrotation Yrotation Zrotation
						End Site
						{
							OFFSET 0.000000 5.380967 16.316498
						}
					}
				}
				JOINT RightShoulder
				{
					OFFSET -3.659161 0.509512 9.384682
					CHANNELS 3 Xrotation Yrotation Zrotation
					JOINT RightArm
					{
						OFFSET 0.000000 -0.000002 12.308899
						CHANNELS 3 Xrotation Yrotation Zrotation
						JOINT RightArmRoll
						{
							OFFSET 0.000000 -0.000001 6.213745
							CHANNELS 3 Xrotation Yrotation Zrotation
							JOINT RightForeArm
							{
								OFFSET 0.000000 -0.000003 18.098495
								CHANNELS 3 Xrotation Yrotation Zrotation
								JOINT RightForeArmRoll
								{
									OFFSET 0.000000 -0.000001 6.972794
									CHANNELS 3 Xrotation Yrotation Zrotation
									JOINT RightHand
									{
										OFFSET 0.000000 -0.000002 13.992905
										CHANNELS 3 Xrotation Yrotation Zrotation
										End Site
										{
											OFFSET 0.000000 0.000000 0.100006
										}
									}
								}
							}
						}
					}
				}
				JOINT LeftShoulder
				{
					OFFSET 3.659161 0.509512 9.384682
					CHANNELS 3 Xrotation Yrotation Zrotation
					JOINT LeftArm
					{
						OFFSET 0.000000 -0.000002 12.308899
						CHANNELS 3 Xrotation Yrotation Zrotation
						JOINT LeftArmRoll
						{
							OFFSET 0.000000 -0.000001 6.213745
							CHANNELS 3 Xrotation Yrotation Zrotation
							JOINT LeftForeArm
							{
								OFFSET 0.000000 -0.000003 18.098495
								CHANNELS 3 Xrotation Yrotation Zrotation
								JOINT LeftForeArmRoll
								{
									OFFSET 0.000000 -0.000001 6.972794
									CHANNELS 3 Xrotation Yrotation Zrotation
									JOINT LeftHand
									{
										OFFSET 0.000000 -0.000002 13.992905
										CHANNELS 3 Xrotation Yrotation Zrotation
										End Site
										{
											OFFSET 0.000000 0.000000 0.100006
										}
									}
								}
							}
						}
					}
				}
			}
		}
	}
	JOINT RightUpLeg
	{
		OFFSET -5.535151 0.851455 -1.014999
		CHANNELS 3 Xrotation Yrotation Zrotation
		JOINT RightUpLegRoll
		{
			OFFSET 0.000000 -0.000003 16.407501
			CHANNELS 3 Xrotation Yrotation Zrotation
			JOINT RightLeg
			{
				OFFSET 0.000000 0.000003 -20.318100
				CHANNELS 3 Xrotation Yrotation Zrotation
				JOINT RightLegRoll
				{
					OFFSET 0.000000 -0.000003 20.384598
					CHANNELS 3 Xrotation Yrotation Zrotation
					JOINT RightFoot
					{
						OFFSET 0.000000 -0.000003 16.966797
						CHANNELS 3 Xrotation Yrotation Zrotation
						JOINT RightToeBase
						{
							OFFSET 0.000000 -0.000002 14.183403
							CHANNELS 3 Xrotation Yrotation Zrotation
							End Site
							{
								OFFSET 0.006012 0.791745 6.868889
							}
						}
					}
				}
			}
		}
	}
	JOINT LeftUpLeg
	{
		OFFSET 5.535149 0.851455 -1.014999
		CHANNELS 3 Xrotation Yrotation Zrotation
		JOINT LeftUpLegRoll
		{
			OFFSET 0.000000 -0.000003 16.407600
			CHANNELS 3 Xrotation Yrotation Zrotation
			JOINT LeftLeg
			{
				OFFSET 0.000000 -0.000003 20.318100
				CHANNELS 3 Xrotation Yrotation Zrotation
				JOINT LeftLegRoll
				{
					OFFSET 0.000000 -0.000003 20.573097
					CHANNELS 3 Xrotation Yrotation Zrotation
					JOINT LeftFoot
					{
						OFFSET 0.000000 -0.000003 16.778305
						CHANNELS 3 Xrotation Yrotation Zrotation
						JOINT LeftToeBase
						{
							OFFSET 0.000000 -0.000002 14.183395
							CHANNELS 3 Xrotation Yrotation Zrotation
							End Site
							{
								OFFSET -0.026943 0.791745 6.868896
							}
						}
					}
				}
			}
		}
	}
}
MOTION
Frames: 7
Frame Time: 0.041667
51.106499 -13.437016 80.675789 -0.712584 12.448068 70.935305 -3.143747 1.404674 1.254734 -2.316053 2.751815 2.570523 -0.670859 2.782400 2.537637 -24.289449 -2.413960 -2.031612 23.228100 -7.847609 1.473119 -7.572803 -22.135772 -5.291741 -103.228132 -203.261020 -82.278863 -0.000001 -0.000007 -0.000001 6.801418 3.174439 -1.581752 0.000008 0.000003 -2.996341 -5.000355 -7.998912 0.000235 -55.098412 67.752219 62.827946 -92.153814 100.947211 70.817409 -0.000000 0.000000 0.000002 21.779641 4.346705 -0.308297 -0.000009 0.000004 3.000009 -5.000338 7.999260 -0.000137 -4.940475 -185.376088 0.682384 -179.999991 0.000005 -1.234995 152.296840 -4.707768 -1.920650 -0.000004 0.000002 0.796065 79.492371 7.883216 -2.298669 46.852277 -6.929446 2.490813 -39.079071 172.873836 5.094764 -0.000003 -0.000004 -0.541085 -17.743634 -0.579737 0.784951 0.000004 0.000001 0.088059 60.329606 -4.713034 -7.206454 25.456871 7.350940 -0.001210 
51.147202 -13.431616 80.697098 -0.742704 12.582175 71.137499 -3.149998 1.404287 1.256125 -2.328574 2.750811 2.574095 -0.683391 2.781442 2.541175 -24.562871 -2.110699 -2.045858 23.395355 -8.171789 1.438277 -7.582693 -21.593052 -5.234426 -103.031334 -203.336043 -82.324352 -0.000001 -0.000006 0.000001 5.894978 3.130270 -1.537163 0.000008 0.000003 -2.996130 -5.000354 -7.998914 0.000234 -55.427504 68.011964 63.133276 -93.319734 101.028026 71.980058 0.000000 -0.000000 0.000001 21.833682 4.388061 -0.316863 -0.000010 0.000005 3.000010 -5.000340 7.999260 -0.000137 -4.985851 -185.449458 0.643060 -179.999991 0.000005 -1.236991 152.388241 -4.709905 -1.923215 -0.000006 -0.000001 0.783225 79.333112 7.908541 -2.350625 47.037474 -6.924180 2.506212 -39.203469 172.928546 5.131821 -0.000003 -0.000004 -0.539209 -17.763635 -0.579334 0.783639 0.000004 0.000001 0.082564 60.350623 -4.741156 -7.148721 25.456868 7.350942 -0.001209 
51.224205 -13.452915 80.703285 -0.771354 12.717785 71.336217 -3.156469 1.403778 1.257575 -2.341559 2.749565 2.577713 -0.696373 2.780234 2.544751 -24.835391 -1.800106 -2.054731 23.562365 -8.504388 1.407509 -7.587666 -21.055699 -5.168691 -102.830492 -203.393662 -82.369493 -0.000000 -0.000006 0.000001 5.034418 3.077001 -1.494822 0.000008 0.000005 -2.996101 -5.000355 -7.998913 0.000234 -55.764717 68.274605 63.445921 -94.472110 101.113048 73.127222 0.000000 0.000000 -0.000000 21.886192 4.427925 -0.325094 -0.000008 0.000005 3.000014 -5.000339 7.999261 -0.000139 -5.034701 -185.522759 0.602581 -179.999991 0.000005 -1.238998 152.478195 -4.710193 -1.926986 -0.000005 0.000002 0.770444 79.174228 7.933480 -2.400767 47.221445 -6.918942 2.521452 -39.328038 172.981617 5.167074 -0.000005 -0.000006 -0.537434 -17.780929 -0.577543 0.782376 0.000004 0.000001 0.077161 60.371325 -4.769011 -7.091483 25.456868 7.350939 -0.001219 
51.307800 -13.497718 80.726807 -0.798346 12.854794 71.530727 -3.163141 1.403239 1.259030 -2.354940 2.748250 2.581257 -0.709755 2.778968 2.548273 -25.108008 -1.483687 -2.058232 23.729658 -8.844642 1.381452 -7.587429 -20.528087 -5.094488 -102.626830 -203.434343 -82.417973 0.000000 -0.000005 -0.000000 4.225794 3.013250 -1.455309 0.000008 0.000003 -2.996291 -5.000355 -7.998911 0.000235 -56.109874 68.537964 63.766195 -95.599337 101.202927 74.247708 -0.000000 0.000000 -0.000000 21.937560 4.466103 -0.332950 -0.000009 0.000004 3.000009 -5.000338 7.999261 -0.000138 -5.087432 -185.594039 0.560867 -179.999991 0.000005 -1.240990 152.567001 -4.707756 -1.929471 -0.000007 -0.000001 0.757741 79.015569 7.958052 -2.448793 47.404139 -6.913744 2.536575 -39.452542 173.032215 5.200670 -0.000005 -0.000005 -0.535773 -17.794919 -0.574304 0.781170 0.000005 0.000001 0.071897 60.391809 -4.796514 -7.034841 25.456868 7.350941 -0.001229 
51.373802 -13.507616 80.742882 -0.823496 12.993403 71.720367 -3.169994 1.402761 1.260444 -2.368674 2.747055 2.584649 -0.723491 2.777819 2.551644 -25.381702 -1.162940 -2.056404 23.898093 -9.191769 1.360776 -7.581674 -20.015067 -5.011871 -102.421364 -203.458262 -82.473558 -0.000001 -0.000005 0.000000 3.475133 2.937792 -1.419241 0.000008 0.000003 -2.996731 -5.000355 -7.998910 0.000235 -56.461892 68.799812 64.093505 -96.691341 101.297648 75.331932 0.000000 0.000000 0.000001 21.988184 4.502370 -0.340424 -0.000008 0.000005 3.000013 -5.000338 7.999259 -0.000138 -5.144446 -185.665251 0.518184 -179.999991 0.000005 -1.242986 152.654441 -4.703453 -1.932172 -0.000005 -0.000000 0.745108 78.857034 7.982145 -2.494395 47.585201 -6.908567 2.551519 -39.576667 173.079562 5.232720 -0.000002 -0.000006 -0.534232 -17.805205 -0.569561 0.780029 0.000004 0.000001 0.066825 60.412736 -4.823492 -6.979279 25.456865 7.350939 -0.001230 
51.444199 -13.530611 80.762093 -0.846641 13.133813 71.904393 -3.176994 1.402431 1.261796 -2.382709 2.746168 2.587776 -0.737528 2.776961 2.554743 -25.657259 -0.839391 -2.049289 24.068011 -9.544990 1.346078 -7.570035 -19.521203 -4.920835 -102.215325 -203.465899 -82.538758 -0.000001 -0.000005 0.000001 2.788511 2.849354 -1.387136 0.000009 0.000001 -2.997470 -5.000353 -7.998915 0.000234 -56.820275 69.058144 64.427959 -97.737582 101.397430 76.369909 -0.000000 -0.000000 0.000000 22.038152 4.536551 -0.347463 -0.000008 0.000005 3.000011 -5.000338 7.999261 -0.000139 -5.206134 -185.734427 0.474447 -179.999991 0.000005 -1.244994 152.740501 -4.696402 -1.933639 -0.000005 0.000001 0.732559 78.698546 8.005789 -2.537586 47.764572 -6.903481 2.566399 -39.700191 173.123657 5.262724 -0.000004 -0.000005 -0.532826 -17.811088 -0.563255 0.778959 0.000005 0.000001 0.061989 60.434224 -4.849854 -6.925020 25.456868 7.350942 -0.001240 
51.532303 -13.550218 80.705498 -0.867628 13.276031 72.082258 -3.184126 1.402343 1.263017 -2.396993 2.745759 2.590544 -0.751816 2.776592 2.557491 -25.935729 -0.514538 -2.036928 24.240247 -9.903423 1.338028 -7.552150 -19.050965 -4.821371 -102.009886 -203.457402 -82.617825 -0.000001 -0.000006 0.000001 2.171946 2.746670 -1.359541 0.000007 0.000002 -2.998550 -5.000353 -7.998911 0.000234 -57.183976 69.310608 64.768990 -98.728663 101.502191 77.352821 -0.000000 -0.000000 -0.000000 22.088060 4.568413 -0.354039 -0.000008 0.000004 3.000007 -5.000338 7.999261 -0.000139 -5.272905 -185.801527 0.429743 -179.999991 0.000005 -1.245991 152.825141 -4.687480 -1.935331 -0.000009 -0.000000 0.720095 78.540004 8.028903 -2.578349 47.942020 -6.898328 2.581032 -39.822807 173.163696 5.290816 -0.000005 -0.000004 -0.531569 -17.812263 -0.555330 0.777963 0.000003 0.000001 0.057439 60.456736 -4.875458 -6.872343 25.456868 7.350940 -0.001240 
